<svg xmlns="http://www.w3.org/2000/svg" xmlns:xlink="http://www.w3.org/1999/xlink" contentStyleType="text/css" data-diagram-type="DESCRIPTION" height="871px" preserveAspectRatio="none" style="width:477px;height:871px;background:#FFFFFF;" version="1.1" viewBox="0 0 477 871" width="477px" zoomAndPan="magnify"><defs/><g><!--cluster AUGMS Smart Garage System--><g class="cluster" data-entity="AUGMS Smart Garage System" data-source-line="10" data-uid="ent0007" id="cluster_AUGMS Smart Garage System"><rect fill="none" height="858" rx="2.5" ry="2.5" style="stroke:#181818;stroke-width:1;" width="254.62" x="217.3" y="7"/><text fill="#000000" font-family="sans-serif" font-size="14" font-weight="bold" lengthAdjust="spacing" textLength="235.1699" x="227.025" y="21.9951">AUGMS Smart Garage System</text></g><!--entity UC101--><g class="entity" data-entity="UC101" data-source-line="12" data-uid="ent0008" id="entity_UC101"><ellipse cx="344.6121" cy="201.0024" fill="#F1F1F1" rx="73.0121" ry="17.0024" style="stroke:#181818;stroke-width:0.5;"/><text fill="#000000" font-family="sans-serif" font-size="14" lengthAdjust="spacing" textLength="113.873" x="287.6756" y="205.6509">Register Vehicle</text></g><!--entity UC102--><g class="entity" data-entity="UC102" data-source-line="13" data-uid="ent0009" id="entity_UC102"><ellipse cx="344.6111" cy="273.0042" fill="#F1F1F1" rx="90.4711" ry="20.4942" style="stroke:#181818;stroke-width:0.5;"/><text fill="#000000" font-family="sans-serif" font-size="14" lengthAdjust="spacing" textLength="154.8066" x="267.2078" y="277.6527">Validate Vehicle Entry</text></g><!--entity UC103--><g class="entity" data-entity="UC103" data-source-line="14" data-uid="ent0010" id="entity_UC103"><ellipse cx="344.6109" cy="430.9982" fill="#F1F1F1" rx="84.0909" ry="19.2182" style="stroke:#181818;stroke-width:0.5;"/><text fill="#000000" font-family="sans-serif" font-size="14" lengthAdjust="spacing" textLength="140.2256" x="274.4981" y="435.6466">Process Vehicle Exit</text></g><!--entity UC104--><g class="entity" data-entity="UC104" data-source-line="15" data-uid="ent0011" id="entity_UC104"><ellipse cx="344.6103" cy="130.0021" fill="#F1F1F1" rx="83.8103" ry="19.1621" style="stroke:#181818;stroke-width:0.5;"/><text fill="#000000" font-family="sans-serif" font-size="14" lengthAdjust="spacing" textLength="139.5762" x="274.8222" y="134.6505">View Parking Status</text></g><!--entity UC105--><g class="entity" data-entity="UC105" data-source-line="16" data-uid="ent0012" id="entity_UC105"><ellipse cx="344.6071" cy="58.9974" fill="#F1F1F1" rx="72.9371" ry="16.9874" style="stroke:#181818;stroke-width:0.5;"/><text fill="#000000" font-family="sans-serif" font-size="14" lengthAdjust="spacing" textLength="113.6885" x="287.7628" y="63.6459">Request Service</text></g><!--entity UC201--><g class="entity" data-entity="UC201" data-source-line="18" data-uid="ent0013" id="entity_UC201"><ellipse cx="344.6131" cy="592.0026" fill="#F1F1F1" rx="111.3131" ry="24.6626" style="stroke:#181818;stroke-width:0.5;"/><text fill="#000000" font-family="sans-serif" font-size="14" lengthAdjust="spacing" textLength="200.7168" x="244.2547" y="596.6511">Manage Vehicle Registration</text></g><!--entity UC202--><g class="entity" data-entity="UC202" data-source-line="19" data-uid="ent0014" id="entity_UC202"><ellipse cx="344.6127" cy="509.0045" fill="#F1F1F1" rx="106.8227" ry="23.7645" style="stroke:#181818;stroke-width:0.5;"/><text fill="#000000" font-family="sans-serif" font-size="14" lengthAdjust="spacing" textLength="190.9893" x="249.1181" y="513.653">Monitor Garage Occupancy</text></g><!--entity UC203--><g class="entity" data-entity="UC203" data-source-line="20" data-uid="ent0015" id="entity_UC203"><ellipse cx="344.6137" cy="674.0007" fill="#F1F1F1" rx="98.9537" ry="22.1907" style="stroke:#181818;stroke-width:0.5;"/><text fill="#000000" font-family="sans-serif" font-size="14" lengthAdjust="spacing" textLength="173.749" x="257.7392" y="678.6492">Manage Service Request</text></g><!--entity UC301--><g class="entity" data-entity="UC301" data-source-line="22" data-uid="ent0016" id="entity_UC301"><ellipse cx="344.6069" cy="752.9974" fill="#F1F1F1" rx="94.9869" ry="21.3974" style="stroke:#181818;stroke-width:0.5;"/><text fill="#000000" font-family="sans-serif" font-size="14" lengthAdjust="spacing" textLength="164.9443" x="262.1347" y="757.6458">Generate Usage Report</text></g><!--entity UC302--><g class="entity" data-entity="UC302" data-source-line="23" data-uid="ent0017" id="entity_UC302"><ellipse cx="344.6065" cy="828.9973" fill="#F1F1F1" rx="85.9865" ry="19.5973" style="stroke:#181818;stroke-width:0.5;"/><text fill="#000000" font-family="sans-serif" font-size="14" lengthAdjust="spacing" textLength="144.5938" x="272.3097" y="833.6457">Manage User Access</text></g><!--entity UC503--><g class="entity" data-entity="UC503" data-source-line="25" data-uid="ent0018" id="entity_UC503"><ellipse cx="344.6149" cy="352.999" fill="#F1F1F1" rx="108.5449" ry="24.109" style="stroke:#181818;stroke-width:0.5;"/><text fill="#000000" font-family="sans-serif" font-size="14" lengthAdjust="spacing" textLength="194.7285" x="247.2506" y="357.6474">Generate Sensor Error Alert</text></g><!--entity Student--><g class="entity" data-entity="Student" data-source-line="4" data-uid="ent0002" id="entity_Student"><ellipse cx="89.6457" cy="51.85" fill="#F1F1F1" rx="16" ry="16" style="stroke:#181818;stroke-width:0.5;"/><path d="M89.6457,71.85 C93.6457,71.85 96.6457,71.85 100.6457,67.85 C108.6457,67.85 116.6457,75.85 116.6457,83.85 L116.6457,87.85 C116.6457,91.85 112.6457,95.85 108.6457,95.85 L70.6457,95.85 C66.6457,95.85 62.6457,91.85 62.6457,87.85 L62.6457,83.85 C62.6457,75.85 70.6457,67.85 78.6457,67.85 C82.6457,71.85 85.6457,71.85 89.6457,71.85" fill="#F1F1F1" style="stroke:#181818;stroke-width:0.5;"/><text fill="#000000" font-family="sans-serif" font-size="14" lengthAdjust="spacing" textLength="55.1113" x="62.09" y="109.3451">Student</text></g><!--entity Faculty--><g class="entity" data-entity="Faculty" data-source-line="5" data-uid="ent0003" id="entity_Faculty"><ellipse cx="89.65" cy="163.85" fill="#F1F1F1" rx="16" ry="16" style="stroke:#181818;stroke-width:0.5;"/><path d="M89.65,183.85 C93.65,183.85 96.65,183.85 100.65,179.85 C108.65,179.85 116.65,187.85 116.65,195.85 L116.65,199.85 C116.65,203.85 112.65,207.85 108.65,207.85 L70.65,207.85 C66.65,207.85 62.65,203.85 62.65,199.85 L62.65,195.85 C62.65,187.85 70.65,179.85 78.65,179.85 C82.65,183.85 85.65,183.85 89.65,183.85" fill="#F1F1F1" style="stroke:#181818;stroke-width:0.5;"/><text fill="#000000" font-family="sans-serif" font-size="14" lengthAdjust="spacing" textLength="50.8662" x="64.2169" y="221.3451">Faculty</text></g><!--entity Sensor--><g class="entity" data-entity="Sensor" data-source-line="6" data-uid="ent0004" id="entity_Sensor"><ellipse cx="89.6523" cy="330.85" fill="#F1F1F1" rx="16" ry="16" style="stroke:#181818;stroke-width:0.5;"/><path d="M89.6523,350.85 C93.6523,350.85 96.6523,350.85 100.6523,346.85 C108.6523,346.85 116.6523,354.85 116.6523,362.85 L116.6523,366.85 C116.6523,370.85 112.6523,374.85 108.6523,374.85 L70.6523,374.85 C66.6523,374.85 62.6523,370.85 62.6523,366.85 L62.6523,362.85 C62.6523,354.85 70.6523,346.85 78.6523,346.85 C82.6523,350.85 85.6523,350.85 89.6523,350.85" fill="#F1F1F1" style="stroke:#181818;stroke-width:0.5;"/><text fill="#000000" font-family="sans-serif" font-size="14" lengthAdjust="spacing" textLength="104.6445" x="37.33" y="388.3451">Sensor System</text></g><!--entity Admin--><g class="entity" data-entity="Admin" data-source-line="7" data-uid="ent0005" id="entity_Admin"><ellipse cx="89.6486" cy="569.85" fill="#F1F1F1" rx="16" ry="16" style="stroke:#181818;stroke-width:0.5;"/><path d="M89.6486,589.85 C93.6486,589.85 96.6486,589.85 100.6486,585.85 C108.6486,585.85 116.6486,593.85 116.6486,601.85 L116.6486,605.85 C116.6486,609.85 112.6486,613.85 108.6486,613.85 L70.6486,613.85 C66.6486,613.85 62.6486,609.85 62.6486,605.85 L62.6486,601.85 C62.6486,593.85 70.6486,585.85 78.6486,585.85 C82.6486,589.85 85.6486,589.85 89.6486,589.85" fill="#F1F1F1" style="stroke:#181818;stroke-width:0.5;"/><text fill="#000000" font-family="sans-serif" font-size="14" lengthAdjust="spacing" textLength="100.5771" x="39.36" y="627.3451">Garage Admin</text></g><!--entity Mgmt--><g class="entity" data-entity="Mgmt" data-source-line="8" data-uid="ent0006" id="entity_Mgmt"><ellipse cx="89.6479" cy="768.85" fill="#F1F1F1" rx="16" ry="16" style="stroke:#181818;stroke-width:0.5;"/><path d="M89.6479,788.85 C93.6479,788.85 96.6479,788.85 100.6479,784.85 C108.6479,784.85 116.6479,792.85 116.6479,800.85 L116.6479,804.85 C116.6479,808.85 112.6479,812.85 108.6479,812.85 L70.6479,812.85 C66.6479,812.85 62.6479,808.85 62.6479,804.85 L62.6479,800.85 C62.6479,792.85 70.6479,784.85 78.6479,784.85 C82.6479,788.85 85.6479,788.85 89.6479,788.85" fill="#F1F1F1" style="stroke:#181818;stroke-width:0.5;"/><text fill="#000000" font-family="sans-serif" font-size="14" lengthAdjust="spacing" textLength="167.2959" x="6" y="826.3451">University Management</text></g><!--link Student to UC101--><g class="link" data-entity-1="Student" data-entity-2="UC101" data-source-line="32" data-uid="lnk19" id="link_Student_UC101"><path d="M117.69,90.35 C134.33,100.88 155.76,115.31 173.3,130 C190.88,144.73 189.42,155.53 209.3,167 C230.96,179.51 251.3233,186.2023 274.8333,191.2423" fill="none" id="Student-to-UC101" style="stroke:#181818;stroke-width:1;"/><polygon fill="#181818" points="280.7,192.5,272.7384,186.7023,275.8111,191.4519,271.0615,194.5246,280.7,192.5" style="stroke:#181818;stroke-width:1;"/></g><!--link Faculty to UC101--><g class="link" data-entity-1="Faculty" data-entity-2="UC101" data-source-line="33" data-uid="lnk20" id="link_Faculty_UC101"><path d="M117.24,187.58 C153.96,189.75 215.5405,193.405 267.3305,196.475" fill="none" id="Faculty-to-UC101" style="stroke:#181818;stroke-width:1;"/><polygon fill="#181818" points="273.32,196.83,264.5725,192.3044,268.3288,196.5341,264.0991,200.2904,273.32,196.83" style="stroke:#181818;stroke-width:1;"/></g><!--link Student to UC104--><g class="link" data-entity-1="Student" data-entity-2="UC104" data-source-line="35" data-uid="lnk21" id="link_Student_UC104"><path d="M117.24,79.89 C156.31,88.54 224.4319,103.6129 277.1819,115.2929" fill="none" id="Student-to-UC104" style="stroke:#181818;stroke-width:1;"/><polygon fill="#181818" points="283.04,116.59,275.1176,110.7389,278.1582,115.5091,273.3881,118.5497,283.04,116.59" style="stroke:#181818;stroke-width:1;"/></g><!--link Faculty to UC104--><g class="link" data-entity-1="Faculty" data-entity-2="UC104" data-source-line="36" data-uid="lnk22" id="link_Faculty_UC104"><path d="M117.24,180.11 C156.31,171.46 224.4319,156.3871 277.1819,144.7071" fill="none" id="Faculty-to-UC104" style="stroke:#181818;stroke-width:1;"/><polygon fill="#181818" points="283.04,143.41,273.3881,141.4503,278.1582,144.4909,275.1176,149.2611,283.04,143.41" style="stroke:#181818;stroke-width:1;"/></g><!--link Student to UC105--><g class="link" data-entity-1="Student" data-entity-2="UC105" data-source-line="38" data-uid="lnk23" id="link_Student_UC105"><path d="M117.24,72.42 C153.96,70.25 215.5405,66.595 267.3305,63.525" fill="none" id="Student-to-UC105" style="stroke:#181818;stroke-width:1;"/><polygon fill="#181818" points="273.32,63.17,264.0991,59.7096,268.3288,63.4659,264.5725,67.6956,273.32,63.17" style="stroke:#181818;stroke-width:1;"/></g><!--link Faculty to UC105--><g class="link" data-entity-1="Faculty" data-entity-2="UC105" data-source-line="39" data-uid="lnk24" id="link_Faculty_UC105"><path d="M117.31,169.89 C134.01,159.34 155.62,144.8 173.3,130 C190.88,115.27 189.42,104.47 209.3,93 C230.96,80.49 251.3233,73.7977 274.8333,68.7577" fill="none" id="Faculty-to-UC105" style="stroke:#181818;stroke-width:1;"/><polygon fill="#181818" points="280.7,67.5,271.0615,65.4754,275.8111,68.5481,272.7384,73.2977,280.7,67.5" style="stroke:#181818;stroke-width:1;"/></g><!--link Sensor to UC102--><g class="link" data-entity-1="Sensor" data-entity-2="UC102" data-source-line="45" data-uid="lnk25" id="link_Sensor_UC102"><path d="M142.38,333.87 C163.09,326.43 187.22,318.02 209.3,311 C233.89,303.18 255.4889,296.8959 279.0689,290.3459" fill="none" id="Sensor-to-UC102" style="stroke:#181818;stroke-width:1;"/><polygon fill="#181818" points="284.85,288.74,275.1078,287.2947,280.0324,290.0782,277.2489,295.0029,284.85,288.74" style="stroke:#181818;stroke-width:1;"/></g><!--link Sensor to UC103--><g class="link" data-entity-1="Sensor" data-entity-2="UC103" data-source-line="46" data-uid="lnk26" id="link_Sensor_UC103"><path d="M142.33,372.29 C163.03,379.75 187.18,388.13 209.3,395 C234.43,402.8 256.7043,408.9756 280.6643,415.2256" fill="none" id="Sensor-to-UC103" style="stroke:#181818;stroke-width:1;"/><polygon fill="#181818" points="286.47,416.74,278.771,410.5979,281.6319,415.478,276.7518,418.3388,286.47,416.74" style="stroke:#181818;stroke-width:1;"/></g><!--link Sensor to UC503--><g class="link" data-entity-1="Sensor" data-entity-2="UC503" data-source-line="47" data-uid="lnk27" id="link_Sensor_UC503"><path d="M142.45,353 C169.41,353 197.42,353 229.76,353" fill="none" id="Sensor-to-UC503" style="stroke:#181818;stroke-width:1;"/><polygon fill="#181818" points="235.76,353,226.76,349,230.76,353,226.76,357,235.76,353" style="stroke:#181818;stroke-width:1;"/></g><!--link Admin to UC201--><g class="link" data-entity-1="Admin" data-entity-2="UC201" data-source-line="53" data-uid="lnk28" id="link_Admin_UC201"><path d="M140.32,592 C166.8,592 194.5,592 226.81,592" fill="none" id="Admin-to-UC201" style="stroke:#181818;stroke-width:1;"/><polygon fill="#181818" points="232.81,592,223.81,588,227.81,592,223.81,596,232.81,592" style="stroke:#181818;stroke-width:1;"/></g><!--link Admin to UC202--><g class="link" data-entity-1="Admin" data-entity-2="UC202" data-source-line="54" data-uid="lnk29" id="link_Admin_UC202"><path d="M140.42,573.83 C161.58,566.25 186.57,557.49 209.3,550 C231.87,542.56 250.9981,536.581 273.1281,529.871" fill="none" id="Admin-to-UC202" style="stroke:#181818;stroke-width:1;"/><polygon fill="#181818" points="278.87,528.13,269.0966,526.9136,274.0851,529.5808,271.4179,534.5694,278.87,528.13" style="stroke:#181818;stroke-width:1;"/></g><!--link Admin to UC203--><g class="link" data-entity-1="Admin" data-entity-2="UC203" data-source-line="55" data-uid="lnk30" id="link_Admin_UC203"><path d="M140.39,610.24 C161.55,617.84 186.55,626.59 209.3,634 C233.01,641.72 253.5041,647.9761 276.4741,654.7361" fill="none" id="Admin-to-UC203" style="stroke:#181818;stroke-width:1;"/><polygon fill="#181818" points="282.23,656.43,274.7254,650.0518,277.4334,655.0184,272.4668,657.7264,282.23,656.43" style="stroke:#181818;stroke-width:1;"/></g><!--link Mgmt to UC301--><g class="link" data-entity-1="Mgmt" data-entity-2="UC301" data-source-line="61" data-uid="lnk31" id="link_Mgmt_UC301"><path d="M173.48,778.56 C202.73,774.16 229.5967,770.1321 258.5267,765.7821" fill="none" id="Mgmt-to-UC301" style="stroke:#181818;stroke-width:1;"/><polygon fill="#181818" points="264.46,764.89,254.9653,762.2727,259.5156,765.6335,256.1548,770.1838,264.46,764.89" style="stroke:#181818;stroke-width:1;"/></g><!--link Mgmt to UC302--><g class="link" data-entity-1="Mgmt" data-entity-2="UC302" data-source-line="62" data-uid="lnk32" id="link_Mgmt_UC302"><path d="M173.48,803.44 C205.32,808.23 235.4365,812.749 266.1365,817.359" fill="none" id="Mgmt-to-UC302" style="stroke:#181818;stroke-width:1;"/><polygon fill="#181818" points="272.07,818.25,263.7638,812.9579,267.1254,817.5075,262.5758,820.8692,272.07,818.25" style="stroke:#181818;stroke-width:1;"/></g><!--SRC=[bLF1Rjim3BthAuXSkXuAj4vot02Zyx80inDOSU-2mhd2R3cJw7P6iN-VPCjkqw0BueDXai_lFL9KXJy9g06ZoaU2lJ8eIJMQsLzA7uGHDGX9ZU7KLGZY6MrJ8sDz3ZYrUzGKecz2jXLr8PfnrDPZEajOpq1O639ZVUN8IuHuNolTb_kliLfezOJ6AkeW5Te1QoVKmzAo9iQyJQ5BvsaM5wkK0w-58GYae-WBOm2VSYoLYmqyuAEI5LvxckB-xlRELnz4fVQ2SAn2eibq4oRocArf95hx2lcZQ4BCUnQ5px0LnasjT7CHrDe9i1XC_6xHaXk2ULBorSEojpZqEF4FZetm9n6GqU0sRRJo0mgDRgHi3qBBRa95R-Y25WJj2JFlDLUeqVZ62-l1EHuQCsBcGMtWAQmRNYpz2APwTCmHJZinnhtZ2YUcfLFxozZLvmyVTWK5JtA8xtURd4EU_8Xtwqt6lw-t_B__iR1_S7Fp9PndsC4tcHFGuWIqE0KjJq3BSptm9EER_2Bxmyn6XUXzOdwSy9Cyuo7-cgwpIopqToxm-mqxZgDtyLdzDCxYLP8csUuI4_v61ms_TqTXz0y0]--></g></svg>